<mxfile host="app.diagrams.net" modified="2021-05-24T12:41:22.130Z" agent="5.0 (Windows NT 10.0; Win64; x64) AppleWebKit/537.36 (KHTML, like Gecko) Chrome/90.0.4430.212 Safari/537.36" etag="sXTLCyXHj2-Opw16IuGH" version="14.7.0" type="github">
  <diagram id="kgpKYQtTHZ0yAKxKKP6v" name="Page-1">
    <mxGraphModel dx="716" dy="387" grid="1" gridSize="10" guides="1" tooltips="1" connect="1" arrows="1" fold="1" page="1" pageScale="1" pageWidth="850" pageHeight="1100" math="0" shadow="0">
      <root>
        <mxCell id="0" />
        <mxCell id="1" parent="0" />
        <mxCell id="3nuBFxr9cyL0pnOWT2aG-1" value="比特币节点" style="shape=umlLifeline;perimeter=lifelinePerimeter;container=1;collapsible=0;recursiveResize=0;rounded=0;shadow=0;strokeWidth=1;fontFamily=Noto Serif SC;fontSource=https%3A%2F%2Ffonts.googleapis.com%2Fcss%3Ffamily%3DNoto%2BSerif%2BSC;fontSize=12;" parent="1" vertex="1">
          <mxGeometry x="120" y="70" width="100" height="300" as="geometry" />
        </mxCell>
        <mxCell id="3nuBFxr9cyL0pnOWT2aG-2" value="" style="points=[];perimeter=orthogonalPerimeter;rounded=0;shadow=0;strokeWidth=1;fontFamily=Noto Serif SC;fontSource=https%3A%2F%2Ffonts.googleapis.com%2Fcss%3Ffamily%3DNoto%2BSerif%2BSC;fontSize=12;" parent="3nuBFxr9cyL0pnOWT2aG-1" vertex="1">
          <mxGeometry x="45" y="70" width="10" height="210" as="geometry" />
        </mxCell>
        <mxCell id="3nuBFxr9cyL0pnOWT2aG-5" value="比特币信息提取" style="shape=umlLifeline;perimeter=lifelinePerimeter;container=1;collapsible=0;recursiveResize=0;rounded=0;shadow=0;strokeWidth=1;fontFamily=Noto Serif SC;fontSource=https%3A%2F%2Ffonts.googleapis.com%2Fcss%3Ffamily%3DNoto%2BSerif%2BSC;fontSize=12;" parent="1" vertex="1">
          <mxGeometry x="310" y="70" width="100" height="300" as="geometry" />
        </mxCell>
        <mxCell id="3nuBFxr9cyL0pnOWT2aG-6" value="" style="points=[];perimeter=orthogonalPerimeter;rounded=0;shadow=0;strokeWidth=1;fontFamily=Noto Serif SC;fontSource=https%3A%2F%2Ffonts.googleapis.com%2Fcss%3Ffamily%3DNoto%2BSerif%2BSC;fontSize=12;" parent="3nuBFxr9cyL0pnOWT2aG-5" vertex="1">
          <mxGeometry x="45" y="80" width="10" height="200" as="geometry" />
        </mxCell>
        <mxCell id="3nuBFxr9cyL0pnOWT2aG-8" value="2.通知最新区块同步完成" style="verticalAlign=bottom;endArrow=block;shadow=0;strokeWidth=1;fontSize=12;fontFamily=Noto Serif SC;fontSource=https%3A%2F%2Ffonts.googleapis.com%2Fcss%3Ffamily%3DNoto%2BSerif%2BSC;entryX=-0.012;entryY=0.235;entryDx=0;entryDy=0;entryPerimeter=0;" parent="1" edge="1" target="3nuBFxr9cyL0pnOWT2aG-6">
          <mxGeometry relative="1" as="geometry">
            <mxPoint x="175" y="197" as="sourcePoint" />
            <mxPoint x="350" y="197" as="targetPoint" />
            <Array as="points">
              <mxPoint x="240" y="197" />
            </Array>
          </mxGeometry>
        </mxCell>
        <mxCell id="oefgWrXp9b9dmfqzYPv9-2" value="分类算法" style="shape=umlLifeline;perimeter=lifelinePerimeter;container=1;collapsible=0;recursiveResize=0;rounded=0;shadow=0;strokeWidth=1;fontFamily=Noto Serif SC;fontSource=https%3A%2F%2Ffonts.googleapis.com%2Fcss%3Ffamily%3DNoto%2BSerif%2BSC;fontSize=12;" parent="1" vertex="1">
          <mxGeometry x="480" y="70" width="100" height="300" as="geometry" />
        </mxCell>
        <mxCell id="oefgWrXp9b9dmfqzYPv9-3" value="" style="points=[];perimeter=orthogonalPerimeter;rounded=0;shadow=0;strokeWidth=1;fontFamily=Noto Serif SC;fontSource=https%3A%2F%2Ffonts.googleapis.com%2Fcss%3Ffamily%3DNoto%2BSerif%2BSC;fontSize=12;" parent="oefgWrXp9b9dmfqzYPv9-2" vertex="1">
          <mxGeometry x="45" y="80" width="10" height="210" as="geometry" />
        </mxCell>
        <mxCell id="L75oaCOi5403GgUs-St9-7" value="8.更新分类器" style="verticalAlign=bottom;endArrow=block;shadow=0;strokeWidth=1;exitX=1.004;exitY=0.906;exitDx=0;exitDy=0;exitPerimeter=0;fontSize=12;fontFamily=Noto Serif SC;fontSource=https%3A%2F%2Ffonts.googleapis.com%2Fcss%3Ffamily%3DNoto%2BSerif%2BSC;entryX=1.035;entryY=0.99;entryDx=0;entryDy=0;entryPerimeter=0;" parent="oefgWrXp9b9dmfqzYPv9-2" edge="1" target="oefgWrXp9b9dmfqzYPv9-3" source="oefgWrXp9b9dmfqzYPv9-3">
          <mxGeometry x="0.1478" y="26" relative="1" as="geometry">
            <mxPoint x="56.669999999999845" y="270.91999999999996" as="sourcePoint" />
            <mxPoint x="56" y="288" as="targetPoint" />
            <Array as="points">
              <mxPoint x="106" y="270" />
              <mxPoint x="106" y="288" />
            </Array>
            <mxPoint x="14" y="-4" as="offset" />
          </mxGeometry>
        </mxCell>
        <mxCell id="oefgWrXp9b9dmfqzYPv9-6" value="1.同步比特币区块" style="verticalAlign=bottom;endArrow=block;shadow=0;strokeWidth=1;exitX=1.067;exitY=0.068;exitDx=0;exitDy=0;exitPerimeter=0;fontSize=12;fontFamily=Noto Serif SC;fontSource=https%3A%2F%2Ffonts.googleapis.com%2Fcss%3Ffamily%3DNoto%2BSerif%2BSC;" parent="1" edge="1">
          <mxGeometry x="-0.159" y="25" relative="1" as="geometry">
            <mxPoint x="175.66999999999996" y="162.91999999999996" as="sourcePoint" />
            <mxPoint x="175" y="180" as="targetPoint" />
            <Array as="points">
              <mxPoint x="225" y="162" />
              <mxPoint x="225" y="180" />
            </Array>
            <mxPoint as="offset" />
          </mxGeometry>
        </mxCell>
        <mxCell id="oefgWrXp9b9dmfqzYPv9-13" value="7.LSTM模型训练与评估" style="verticalAlign=bottom;endArrow=block;shadow=0;strokeWidth=1;fontSize=12;fontFamily=Noto Serif SC;fontSource=https%3A%2F%2Ffonts.googleapis.com%2Fcss%3Ffamily%3DNoto%2BSerif%2BSC;" parent="1" edge="1">
          <mxGeometry x="-0.1525" y="24" relative="1" as="geometry">
            <mxPoint x="536" y="314" as="sourcePoint" />
            <mxPoint x="536" y="332" as="targetPoint" />
            <Array as="points">
              <mxPoint x="586" y="314" />
              <mxPoint x="586" y="332" />
            </Array>
            <mxPoint y="-4" as="offset" />
          </mxGeometry>
        </mxCell>
        <mxCell id="L75oaCOi5403GgUs-St9-1" value="" style="endArrow=classic;html=1;fontFamily=Noto Serif SC;fontSource=https%3A%2F%2Ffonts.googleapis.com%2Fcss%3Ffamily%3DNoto%2BSerif%2BSC;fontSize=12;exitX=-0.017;exitY=0.339;exitDx=0;exitDy=0;exitPerimeter=0;" parent="1" edge="1" source="3nuBFxr9cyL0pnOWT2aG-6">
          <mxGeometry width="50" height="50" relative="1" as="geometry">
            <mxPoint x="350" y="218" as="sourcePoint" />
            <mxPoint x="173.92857142857144" y="218" as="targetPoint" />
          </mxGeometry>
        </mxCell>
        <mxCell id="L75oaCOi5403GgUs-St9-2" value="&lt;font style=&quot;font-size: 12px;&quot;&gt;3.查询最新区块信息&lt;/font&gt;" style="edgeLabel;html=1;align=center;verticalAlign=middle;resizable=0;points=[];fontFamily=Noto Serif SC;fontSource=https%3A%2F%2Ffonts.googleapis.com%2Fcss%3Ffamily%3DNoto%2BSerif%2BSC;fontSize=12;" parent="L75oaCOi5403GgUs-St9-1" vertex="1" connectable="0">
          <mxGeometry x="-0.0105" y="1" relative="1" as="geometry">
            <mxPoint y="-10" as="offset" />
          </mxGeometry>
        </mxCell>
        <mxCell id="L75oaCOi5403GgUs-St9-3" value="4.返回最新区块内容" style="verticalAlign=bottom;endArrow=block;shadow=0;strokeWidth=1;fontSize=12;fontFamily=Noto Serif SC;fontSource=https%3A%2F%2Ffonts.googleapis.com%2Fcss%3Ffamily%3DNoto%2BSerif%2BSC;" parent="1" edge="1">
          <mxGeometry relative="1" as="geometry">
            <mxPoint x="176" y="240" as="sourcePoint" />
            <mxPoint x="355" y="240" as="targetPoint" />
            <Array as="points">
              <mxPoint x="241" y="240" />
            </Array>
          </mxGeometry>
        </mxCell>
        <mxCell id="L75oaCOi5403GgUs-St9-4" value="5.比特信息提取与转义" style="verticalAlign=bottom;endArrow=block;shadow=0;strokeWidth=1;exitX=0.948;exitY=0.531;exitDx=0;exitDy=0;exitPerimeter=0;fontSize=12;fontFamily=Noto Serif SC;fontSource=https%3A%2F%2Ffonts.googleapis.com%2Fcss%3Ffamily%3DNoto%2BSerif%2BSC;" parent="1" edge="1" source="3nuBFxr9cyL0pnOWT2aG-6">
          <mxGeometry x="-0.1427" y="21" relative="1" as="geometry">
            <mxPoint x="356.66999999999996" y="256.91999999999996" as="sourcePoint" />
            <mxPoint x="364" y="274" as="targetPoint" />
            <Array as="points">
              <mxPoint x="420" y="256" />
              <mxPoint x="420" y="274" />
            </Array>
            <mxPoint x="-1" y="-6" as="offset" />
          </mxGeometry>
        </mxCell>
        <mxCell id="L75oaCOi5403GgUs-St9-6" value="6.提供最新区块信息数据" style="verticalAlign=bottom;endArrow=block;shadow=0;strokeWidth=1;fontSize=12;fontFamily=Noto Serif SC;fontSource=https%3A%2F%2Ffonts.googleapis.com%2Fcss%3Ffamily%3DNoto%2BSerif%2BSC;exitX=1.039;exitY=0.745;exitDx=0;exitDy=0;exitPerimeter=0;entryX=-0.038;entryY=0.711;entryDx=0;entryDy=0;entryPerimeter=0;" parent="1" edge="1" target="oefgWrXp9b9dmfqzYPv9-3" source="3nuBFxr9cyL0pnOWT2aG-6">
          <mxGeometry relative="1" as="geometry">
            <mxPoint x="380" y="299" as="sourcePoint" />
            <mxPoint x="520" y="299" as="targetPoint" />
            <Array as="points">
              <mxPoint x="421" y="299" />
            </Array>
          </mxGeometry>
        </mxCell>
      </root>
    </mxGraphModel>
  </diagram>
</mxfile>
